<svg xmlns="http://www.w3.org/2000/svg" width="69.755" height="49.804" viewBox="0 0 69.755 49.804">
    <g id="logo" transform="translate(-51.695 -58.824)">
        <rect id="Rectangle_9" data-name="Rectangle 9" width="57.943" height="31.885" transform="translate(57.601 67.783)" fill="#1a1818"/>
        <ellipse id="Ellipse_6" data-name="Ellipse 6" cx="34.878" cy="24.902" rx="34.878" ry="24.902" transform="translate(51.695 58.824)" fill="#fff"/>
        <g id="Group_2" data-name="Group 2">
        <path id="Path_1" data-name="Path 1" d="M61.134,95.953a.566.566,0,0,1,.094.185.7.7,0,0,1,.007.091.264.264,0,0,1-.084.207.326.326,0,0,1-.229.08.375.375,0,0,1-.423-.423.458.458,0,0,1,.156-.353.534.534,0,0,1,.37-.141.778.778,0,0,1,.662.483l.024.043v-.872H60.363l-.279-.279h2.192l.293.279H62v2.183l-.156-.207v-.071a1.453,1.453,0,0,0-.076-.4,2,2,0,0,0-.133-.382,1.011,1.011,0,0,0-.2-.264A.489.489,0,0,0,61.134,95.953Z" fill="#1a1818"/>
        <path id="Path_2" data-name="Path 2" d="M63.141,95.239a.362.362,0,0,0-.211.064.268.268,0,0,0-.114.176,1.95,1.95,0,0,0,.043.6,5.321,5.321,0,0,1,.087.587.661.661,0,0,1-.364.579.555.555,0,0,1-.267.11.129.129,0,0,1-.133-.1.087.087,0,0,1-.008-.035c0-.035.03-.062.091-.08.077-.025.119-.04.123-.04a1,1,0,0,0,.152-.134.568.568,0,0,0,.064-.25,1.406,1.406,0,0,0-.07-.367,1.992,1.992,0,0,1-.082-.465.889.889,0,0,1,.114-.428c.051-.066.1-.134.148-.2h-.505l-.285-.279h1.314l.3.279C63.429,95.243,63.3,95.239,63.141,95.239Z" fill="#1a1818"/>
        <path id="Path_3" data-name="Path 3" d="M63.5,95.189c-.016-.19-.028-.394-.028-.621l.158.129a1.165,1.165,0,0,0,.055.216l.045.061h.3l.279.279h-.561v2.183l-.278-.3V95.611a.339.339,0,0,0-.047-.189.347.347,0,0,0-.287-.169h-.066l-.28-.271a1.607,1.607,0,0,1,.411-.008A.387.387,0,0,1,63.5,95.189Z" fill="#1a1818"/>
        <path id="Path_4" data-name="Path 4" d="M65.872,95.258v2.12l-.285-.288.009-1.274a.55.55,0,0,0-.117-.249c-.089-.133-.164-.2-.228-.186-.1.01-.152.045-.166.1.2.153.3.29.3.41a.811.811,0,0,1-.026.156.262.262,0,0,1-.273.155.36.36,0,0,1-.3-.18.411.411,0,0,1-.143.141.348.348,0,0,1-.183.06.255.255,0,0,1-.207-.1.385.385,0,0,1-.08-.231.435.435,0,0,1,.111-.264.576.576,0,0,1,.222-.187.749.749,0,0,0-.085-.118.334.334,0,0,0-.193-.065H64l-.282-.279h.511a.454.454,0,0,1,.27.085c.071.066.106.1.109.1a.317.317,0,0,1,.083.115A.616.616,0,0,1,65.08,95a.387.387,0,0,1,.1-.02c.1,0,.246.151.436.455l.04.063-.037-.46-.023-.473a2.4,2.4,0,0,1,.2.191.232.232,0,0,1,.03.093.271.271,0,0,1,0,.057.159.159,0,0,0,.093.074H66.1l.282.279Z" fill="#1a1818"/>
        <path id="Path_5" data-name="Path 5" d="M66.823,95.953a.537.537,0,0,1,.092.185.468.468,0,0,1,.009.091.265.265,0,0,1-.085.207.321.321,0,0,1-.229.08.375.375,0,0,1-.424-.423.461.461,0,0,1,.155-.353.539.539,0,0,1,.372-.141.781.781,0,0,1,.662.483l.025.043v-.872H66.052l-.28-.279h2.189l.3.279h-.573v2.183l-.155-.207v-.071a1.491,1.491,0,0,0-.076-.4,2.066,2.066,0,0,0-.134-.382.937.937,0,0,0-.2-.264A.476.476,0,0,0,66.823,95.953Z" fill="#1a1818"/>
        <path id="Path_6" data-name="Path 6" d="M68.215,95.189c-.019-.19-.027-.394-.027-.621l.154.129a1.018,1.018,0,0,0,.057.216c.011.017.026.036.045.061h.3l.279.279h-.562v2.183l-.274-.3V95.611a.347.347,0,0,0-.048-.189.352.352,0,0,0-.29-.169h-.065l-.279-.271a1.607,1.607,0,0,1,.411-.008A.4.4,0,0,1,68.215,95.189Z" fill="#1a1818"/>
        <path id="Path_7" data-name="Path 7" d="M70.538,95.253v2.125l-.284-.275V95.971a.209.209,0,0,0-.075-.149.205.205,0,0,0-.149-.072.107.107,0,0,0-.1.06.519.519,0,0,0,0,.25l-.2.077a.158.158,0,0,0,0-.147.65.65,0,0,0-.108-.14.344.344,0,0,0-.258-.1.331.331,0,0,0-.229.089.287.287,0,0,0-.1.221.211.211,0,0,0,.143.218.221.221,0,0,1-.018-.093.245.245,0,0,1,.08-.188.269.269,0,0,1,.189-.072.255.255,0,0,1,.251.2.316.316,0,0,1,.031.235.337.337,0,0,1-.338.218.576.576,0,0,1-.61-.612.683.683,0,0,1,.121-.4.426.426,0,0,1,.356-.2.537.537,0,0,1,.4.17l.029.037a.392.392,0,0,1,.116-.132.2.2,0,0,1,.149-.056.32.32,0,0,1,.212.081c.025.032.05.061.071.086s.02.024.033.036v-.337H68.717l-.292-.285H70.8l.291.285Z" fill="#1a1818"/>
        <path id="Path_8" data-name="Path 8" d="M73.334,95.253v.064a.682.682,0,0,1,.477.216.9.9,0,0,1,.265.455.83.83,0,0,1,.022.177.457.457,0,0,1-.1.293.327.327,0,0,1-.27.14.316.316,0,0,1-.213-.086.273.273,0,0,1-.091-.2.308.308,0,0,1,.134-.242.449.449,0,0,1,.136-.024.319.319,0,0,1,.226.1.058.058,0,0,1,.018.037c0,.031-.03.044-.1.044a.248.248,0,0,0,.032-.074.45.45,0,0,0-.147-.317.522.522,0,0,0-.386-.161v1.67l-.148-.149a1.722,1.722,0,0,0-.089-.239,1.142,1.142,0,0,0-.144-.217,1.2,1.2,0,0,0-.232-.215,1.272,1.272,0,0,0-.492-.173l-.315-.384a3.385,3.385,0,0,1,1.14-.627v-.091h-1.2l-.285-.279h2.621l.279.279Zm-.679.648c-.028.02-.1.068-.2.142a1.408,1.408,0,0,1,.6.515V95.71A2.08,2.08,0,0,0,72.655,95.9Z" fill="#1a1818"/>
        <path id="Path_9" data-name="Path 9" d="M74.491,95.189c-.019-.19-.027-.394-.027-.621l.155.129a.911.911,0,0,0,.057.216c.009.017.027.036.045.061h.3l.28.279h-.561v2.183l-.275-.3V95.611a.347.347,0,0,0-.048-.189.351.351,0,0,0-.291-.169h-.063l-.282-.271a1.615,1.615,0,0,1,.412-.008A.39.39,0,0,1,74.491,95.189Z" fill="#1a1818"/>
        <path id="Path_10" data-name="Path 10" d="M76.737,94.569a1.111,1.111,0,0,0-.68-.227.856.856,0,0,0-.461.166c-.037.041-.079.092-.132.161a.335.335,0,0,0-.085.16l.07.145h.36l.284.279h-.568v2.1l-.283-.276V95.253h-.27l-.28-.279h.521c-.033-.036-.069-.073-.1-.114a.184.184,0,0,1-.05-.128.406.406,0,0,1,.044-.19,1.492,1.492,0,0,1,.2-.269,1.115,1.115,0,0,1,.282-.173.654.654,0,0,1,.277-.059,1.634,1.634,0,0,1,.851.279,2.4,2.4,0,0,1,.376.328l.086.263Z" fill="#1a1818"/>
        <path id="Path_11" data-name="Path 11" d="M77.258,95.253v2.1l-.147-.142q-.2-.361-.219-.39a.956.956,0,0,0-.322-.307,1.094,1.094,0,0,0-.508-.158l-.3-.409a4.484,4.484,0,0,1,1.209-.631v-.062H75.767l-.286-.279H77.5l.285.279Zm-.8,1.879a.239.239,0,0,1-.183-.079.255.255,0,0,1-.074-.179.233.233,0,0,1,.068-.169.221.221,0,0,1,.162-.069.245.245,0,0,1,.157.056.253.253,0,0,1,.094.14.256.256,0,0,1-.045.206A.214.214,0,0,1,76.454,97.132Zm.518-1.428a2.563,2.563,0,0,0-.656.346,1.466,1.466,0,0,1,.656.555Z" fill="#1a1818"/>
        <path id="Path_12" data-name="Path 12" d="M78.945,95.253v.064a.682.682,0,0,1,.476.216.922.922,0,0,1,.267.455.97.97,0,0,1,.02.177.456.456,0,0,1-.1.293.327.327,0,0,1-.27.14.305.305,0,0,1-.21-.086.261.261,0,0,1-.093-.2.305.305,0,0,1,.132-.242.465.465,0,0,1,.137-.024.317.317,0,0,1,.226.1.054.054,0,0,1,.018.037c0,.031-.031.044-.1.044a.249.249,0,0,0,.03-.074.45.45,0,0,0-.147-.317.514.514,0,0,0-.385-.161v1.67L78.8,97.2a2.054,2.054,0,0,0-.089-.239,1.04,1.04,0,0,0-.143-.217,1.17,1.17,0,0,0-.234-.215,1.245,1.245,0,0,0-.491-.173l-.315-.384a3.385,3.385,0,0,1,1.14-.627v-.091h-1.2l-.285-.279h2.623l.279.279Zm-.68.648c-.03.02-.1.068-.2.142a1.408,1.408,0,0,1,.6.515V95.71A2.124,2.124,0,0,0,78.265,95.9Z" fill="#1a1818"/>
        <path id="Path_13" data-name="Path 13" d="M78.77,97.174a.056.056,0,0,0,0-.026,1.278,1.278,0,0,0-.017-.165,1.128,1.128,0,0,0,.029-.137.418.418,0,0,1,.186.287.866.866,0,0,0,0,.156c.039.028.1.065.169.121a1.392,1.392,0,0,1,.309.353.338.338,0,0,1,.066.119.955.955,0,0,1-.019.33,1.617,1.617,0,0,0-.61-.674.487.487,0,0,1-.42.235.461.461,0,0,1-.267-.086.347.347,0,0,1-.115-.233.32.32,0,0,1,.133-.265.441.441,0,0,1,.285-.1A.589.589,0,0,1,78.77,97.174Zm-.271.174a.179.179,0,0,0-.1.018.084.084,0,0,0-.058.075c0,.036.025.052.07.052a.347.347,0,0,0,.187-.067.385.385,0,0,0,.053-.043C78.647,97.363,78.593,97.352,78.5,97.348Z" fill="#1a1818"/>
        <path id="Path_14" data-name="Path 14" d="M81.612,95.253v2.125l-.286-.275V95.971a.216.216,0,0,0-.072-.149.212.212,0,0,0-.15-.072.1.1,0,0,0-.1.06.494.494,0,0,0,0,.25l-.2.077a.158.158,0,0,0,0-.147.686.686,0,0,0-.108-.14.345.345,0,0,0-.259-.1.333.333,0,0,0-.228.089.291.291,0,0,0-.1.221.215.215,0,0,0,.142.218.236.236,0,0,1-.015-.093A.253.253,0,0,1,80.313,96a.278.278,0,0,1,.192-.072c.116,0,.2.063.25.2a.365.365,0,0,1,.035.235.342.342,0,0,1-.341.218A.6.6,0,0,1,80,96.407a.612.612,0,0,1-.164-.443.656.656,0,0,1,.122-.4.422.422,0,0,1,.352-.2.539.539,0,0,1,.4.17l.028.037a.4.4,0,0,1,.117-.132.2.2,0,0,1,.148-.056.33.33,0,0,1,.215.081c.023.032.048.061.07.086l.031.036v-.337H79.787l-.29-.285h2.378l.291.285Z" fill="#1a1818"/>
        <path id="Path_15" data-name="Path 15" d="M82.181,95.189a5.93,5.93,0,0,1-.029-.621l.157.129a.914.914,0,0,0,.056.216c.01.017.025.036.043.061h.3l.28.279h-.562v2.183l-.276-.3V95.611a.331.331,0,0,0-.048-.189.346.346,0,0,0-.288-.169h-.064l-.28-.271a1.591,1.591,0,0,1,.409-.008A.4.4,0,0,1,82.181,95.189Z" fill="#1a1818"/>
        <path id="Path_16" data-name="Path 16" d="M82.823,95.45h0a.468.468,0,0,1-.127-.125l-.045-.086-.265-.265h2.227l.288.29h-.591v2.122l-.162-.178a.984.984,0,0,0-.22-.486,1.536,1.536,0,0,0-.271-.205.422.422,0,0,1-.358.178.379.379,0,0,1-.349-.194.388.388,0,0,0-.013-.09.327.327,0,0,1-.014-.085.342.342,0,0,1,.135-.293.475.475,0,0,1,.31-.1.342.342,0,0,1,.106.013.457.457,0,0,0-.192-.322,1.191,1.191,0,0,0-.25-.089A.817.817,0,0,1,82.823,95.45Zm1.215-.186H83.26c.144.123.236.2.276.244a.718.718,0,0,1,.185.315,1.378,1.378,0,0,1,.057.379c.065.07.154.171.26.307Z" fill="#1a1818"/>
        <path id="Path_17" data-name="Path 17" d="M87.212,95.253v2.176l-.181-.265a1.141,1.141,0,0,0-1.02-.791l-.293-.414a4.2,4.2,0,0,1,.529-.341,4.986,4.986,0,0,1,.685-.295v-.07H85.658l-.278-.279h2.106l.277.279Zm-.28.478a3.53,3.53,0,0,0-.649.338,1.711,1.711,0,0,1,.649.531Z" fill="#1a1818"/>
        <path id="Path_18" data-name="Path 18" d="M87.767,95.189a5.975,5.975,0,0,1-.026-.621l.156.129a.919.919,0,0,0,.054.216c.012.017.025.036.045.061h.3l.279.279h-.561v2.183l-.273-.3V95.611a.323.323,0,0,0-.049-.189.353.353,0,0,0-.289-.169H87.34l-.283-.271a1.623,1.623,0,0,1,.413-.008A.392.392,0,0,1,87.767,95.189Z" fill="#1a1818"/>
        <path id="Path_19" data-name="Path 19" d="M89.086,96.05a.375.375,0,0,1-.2.044.465.465,0,0,1-.353-.151.487.487,0,0,1-.152-.36.477.477,0,0,1,.152-.344.439.439,0,0,1,.332-.155.445.445,0,0,1,.345.156.5.5,0,0,1,.068.614A.538.538,0,0,1,89.086,96.05Zm.3,1.24a8.572,8.572,0,0,0-.888-.677v-.56c.144.118.321.275.525.467.114.112.339.373.672.787v.286Zm-.419-1.922a.385.385,0,0,0-.219.117.3.3,0,0,0-.091.223c0,.071.026.106.079.106a.346.346,0,0,0,.174-.073.355.355,0,0,0,.137-.127.34.34,0,0,0,.013-.12C89.064,95.411,89.032,95.368,88.971,95.368Z" fill="#1a1818"/>
        <path id="Path_20" data-name="Path 20" d="M91.3,95.253v2.125l-.287-.275V95.971a.208.208,0,0,0-.072-.149.214.214,0,0,0-.15-.072.106.106,0,0,0-.1.06.494.494,0,0,0,0,.25l-.2.077a.164.164,0,0,0,0-.147.594.594,0,0,0-.111-.14.345.345,0,0,0-.259-.1.328.328,0,0,0-.226.089.284.284,0,0,0-.1.221.215.215,0,0,0,.142.218.236.236,0,0,1-.015-.093A.25.25,0,0,1,90.006,96a.268.268,0,0,1,.19-.072.255.255,0,0,1,.251.2.327.327,0,0,1,.031.235.336.336,0,0,1-.339.218.59.59,0,0,1-.443-.169.605.605,0,0,1-.166-.443.67.67,0,0,1,.122-.4.424.424,0,0,1,.354-.2.54.54,0,0,1,.4.17l.028.037a.407.407,0,0,1,.117-.132.2.2,0,0,1,.148-.056.334.334,0,0,1,.215.081c.024.032.046.061.066.086s.023.024.034.036v-.337H89.481l-.291-.285h2.375l.291.285Z" fill="#1a1818"/>
        <path id="Path_21" data-name="Path 21" d="M91.87,95.189c-.017-.19-.026-.394-.026-.621L92,94.7a.961.961,0,0,0,.057.216.669.669,0,0,0,.043.061h.3l.28.279h-.563v2.183l-.275-.3V95.611a.323.323,0,0,0-.049-.189.345.345,0,0,0-.287-.169h-.064l-.281-.271a1.615,1.615,0,0,1,.412-.008A.389.389,0,0,1,91.87,95.189Z" fill="#1a1818"/>
        <path id="Path_22" data-name="Path 22" d="M95.311,96.925a.657.657,0,0,1-.429.142.784.784,0,0,1-.43-.125,2.136,2.136,0,0,1-.293-.266,3.821,3.821,0,0,1-.648-1.478l.234.127.059.16.017.048a4.242,4.242,0,0,0,.335.666.992.992,0,0,0,.313.324.7.7,0,0,0,.4.147.486.486,0,0,0,.253-.064.267.267,0,0,0,.149-.2.21.21,0,0,0-.072-.2.272.272,0,0,1-.184.071.286.286,0,0,1-.21-.082.26.26,0,0,1-.082-.2.294.294,0,0,1,.078-.207.259.259,0,0,1,.2-.093.364.364,0,0,1,.165.042.2.2,0,0,0,.1-.178c0-.141-.068-.212-.2-.212a.612.612,0,0,0-.251.046s-.071.043-.2.127a.421.421,0,0,0-.077.074.334.334,0,0,1,.116.271c0,.132-.084.2-.251.2-.216,0-.323-.112-.322-.339a.625.625,0,0,1,.4-.537,1.021,1.021,0,0,1,.475-.12.614.614,0,0,1,.352.1.433.433,0,0,1,.189.381,1.108,1.108,0,0,1-.04.266.679.679,0,0,1-.1.233.746.746,0,0,1,.169.44A.53.53,0,0,1,95.311,96.925Z" fill="#1a1818"/>
        <path id="Path_23" data-name="Path 23" d="M96.776,94.074a.372.372,0,0,1,.157.036c-.1.061-.143.114-.143.159a.158.158,0,0,0,.074.125.229.229,0,0,0,.142.058,1.121,1.121,0,0,0,.248-.014c.147-.015.238-.025.269-.025a1.046,1.046,0,0,1,.528.093.517.517,0,0,1,.269.468h.3l.279.279H97.668a.135.135,0,0,0,.025.045.407.407,0,0,0,.181.071.548.548,0,0,1,.318.261.635.635,0,0,1,.112.405.6.6,0,0,1-.423.512c-.061.025-.108.044-.141.059a2.729,2.729,0,0,1,.443.29c.054.048.187.167.393.364l.107.441a3.105,3.105,0,0,0-1.64-1.016l-.31-.65a1.249,1.249,0,0,0,.673.236.859.859,0,0,0,.375-.1.484.484,0,0,0,.173-.158.184.184,0,0,0,.024-.078.4.4,0,0,0-.012-.094.214.214,0,0,0-.23-.19.159.159,0,0,0-.048.007.455.455,0,0,1-.177.284.347.347,0,0,1-.242.089.313.313,0,0,1-.193-.066.221.221,0,0,1-.084-.175.386.386,0,0,1,.061-.2.374.374,0,0,1,.144-.142c.023-.011.1-.05.233-.108a.431.431,0,0,0-.09-.093h-.619l-.282-.279h1.422c.038,0,.079-.01.125-.017a.334.334,0,0,0,.065-.037c.024-.023.04-.04.04-.051,0-.029-.035-.051-.105-.07a.517.517,0,0,0-.189-.021c-.1,0-.231.008-.395.022-.07.006-.117.008-.146.008a.827.827,0,0,1-.441-.115.428.428,0,0,1-.221-.376.32.32,0,0,1,.075-.21A.13.13,0,0,1,96.776,94.074Z" fill="#1a1818"/>
        <path id="Path_24" data-name="Path 24" d="M99.423,96.05a.381.381,0,0,1-.2.044.477.477,0,0,1-.355-.151.493.493,0,0,1-.15-.36.483.483,0,0,1,.15-.344.448.448,0,0,1,.334-.155.44.44,0,0,1,.344.156.5.5,0,0,1,.069.614A.528.528,0,0,1,99.423,96.05Zm.3,1.24a8.643,8.643,0,0,0-.887-.677v-.56c.146.118.318.275.524.467.115.112.339.373.672.787v.286Zm-.42-1.922a.379.379,0,0,0-.216.117.288.288,0,0,0-.091.223c0,.071.024.106.076.106a.345.345,0,0,0,.175-.073.364.364,0,0,0,.139-.127.479.479,0,0,0,.01-.12C99.4,95.411,99.37,95.368,99.306,95.368Z" fill="#1a1818"/>
        <path id="Path_25" data-name="Path 25" d="M101.562,94.569a1.11,1.11,0,0,0-.682-.227.85.85,0,0,0-.458.166,2.042,2.042,0,0,0-.133.161c-.059.081-.088.134-.085.16l.069.145h.363l.281.279h-.566v2.1l-.285-.276V95.253h-.272l-.279-.279h.525c-.034-.036-.069-.073-.1-.114a.176.176,0,0,1-.05-.128.384.384,0,0,1,.043-.19,1.54,1.54,0,0,1,.205-.269,1.106,1.106,0,0,1,.283-.173.659.659,0,0,1,.278-.059,1.637,1.637,0,0,1,.85.279,2.6,2.6,0,0,1,.375.328l.09.263Z" fill="#1a1818"/>
        <path id="Path_26" data-name="Path 26" d="M102.4,95.253v2.125l-.285-.275V95.971a.207.207,0,0,0-.071-.149.216.216,0,0,0-.151-.072.1.1,0,0,0-.1.06.494.494,0,0,0,0,.25l-.2.077a.152.152,0,0,0,0-.147.686.686,0,0,0-.108-.14.344.344,0,0,0-.259-.1.33.33,0,0,0-.227.089.288.288,0,0,0-.1.221.214.214,0,0,0,.142.218.279.279,0,0,1-.016-.093.251.251,0,0,1,.079-.188.271.271,0,0,1,.192-.072.251.251,0,0,1,.248.2.33.33,0,0,1,.033.235.338.338,0,0,1-.339.218.591.591,0,0,1-.444-.169.6.6,0,0,1-.165-.443.675.675,0,0,1,.12-.4.424.424,0,0,1,.355-.2.534.534,0,0,1,.4.17l.029.037a.388.388,0,0,1,.115-.132.2.2,0,0,1,.15-.056.336.336,0,0,1,.215.081.92.92,0,0,0,.066.086.22.22,0,0,1,.033.036v-.337h-1.536l-.29-.285h2.372l.294.285Z" fill="#1a1818"/>
        <path id="Path_27" data-name="Path 27" d="M104.533,95.258v2.12l-.285-.288.01-1.274a.557.557,0,0,0-.116-.249c-.091-.133-.166-.2-.231-.186-.1.01-.149.045-.165.1.2.153.3.29.3.41a.76.76,0,0,1-.027.156.26.26,0,0,1-.274.155.36.36,0,0,1-.3-.18.4.4,0,0,1-.144.141.336.336,0,0,1-.181.06.25.25,0,0,1-.207-.1.373.373,0,0,1-.08-.231.439.439,0,0,1,.11-.264.591.591,0,0,1,.222-.187.615.615,0,0,0-.087-.118.325.325,0,0,0-.191-.065h-.224l-.279-.279h.51a.453.453,0,0,1,.271.085,1.241,1.241,0,0,1,.107.1.354.354,0,0,1,.086.115.614.614,0,0,1,.383-.285.371.371,0,0,1,.1-.02c.1,0,.244.151.433.455l.041.063-.038-.46-.021-.473a2.256,2.256,0,0,1,.195.191.232.232,0,0,1,.036.093V94.9a.146.146,0,0,0,.091.074h.185l.282.279Z" fill="#1a1818"/>
        <path id="Path_28" data-name="Path 28" d="M105.852,95.253l-.285-.279h2.453l.294.279Zm1.232.533a.727.727,0,0,0,.332-.369.047.047,0,0,1,.048-.03c.056,0,.15.084.278.256a.778.778,0,0,1,.2.45.975.975,0,0,1-.412.8.7.7,0,0,1-.417.109.839.839,0,0,1-.5-.163,1.771,1.771,0,0,1-.537-.795c-.032-.086-.108-.318-.229-.7l.22.068a2.091,2.091,0,0,0,.536.957.766.766,0,0,0,.548.214.534.534,0,0,0,.493-.357.369.369,0,0,0,.011-.222c-.021-.1-.041-.15-.061-.15-.013.021-.041.055-.081.11a.615.615,0,0,1-.309.177.682.682,0,0,1-.214.034.56.56,0,0,1-.441-.188.361.361,0,0,1-.083-.266.343.343,0,0,1,.109-.269.4.4,0,0,1,.289-.085.276.276,0,0,1,.186.086.266.266,0,0,1,.036.332Z" fill="#1a1818"/>
        <path id="Path_29" data-name="Path 29" d="M108.3,95.189c-.018-.19-.027-.394-.027-.621l.156.129a.961.961,0,0,0,.057.216.71.71,0,0,0,.044.061h.3l.281.279h-.564v2.183l-.275-.3V95.611a.316.316,0,0,0-.048-.189.349.349,0,0,0-.288-.169h-.064l-.28-.271a1.591,1.591,0,0,1,.409-.008A.389.389,0,0,1,108.3,95.189Z" fill="#1a1818"/>
        <path id="Path_30" data-name="Path 30" d="M110.672,95.258v2.12l-.286-.288.011-1.274a.544.544,0,0,0-.118-.249c-.088-.133-.165-.2-.23-.186-.091.01-.15.045-.165.1.2.153.3.29.3.41a.813.813,0,0,1-.029.156.26.26,0,0,1-.272.155.354.354,0,0,1-.3-.18.427.427,0,0,1-.145.141.348.348,0,0,1-.183.06.25.25,0,0,1-.207-.1.39.39,0,0,1-.078-.231.442.442,0,0,1,.108-.264.6.6,0,0,1,.221-.187.709.709,0,0,0-.082-.118.344.344,0,0,0-.193-.065H108.8l-.282-.279h.511a.439.439,0,0,1,.27.085c.071.066.108.1.111.1a.418.418,0,0,1,.085.115.607.607,0,0,1,.38-.285.4.4,0,0,1,.1-.02c.1,0,.247.151.436.455l.041.063-.038-.46-.022-.473a2.636,2.636,0,0,1,.2.191.217.217,0,0,1,.033.093.272.272,0,0,1,0,.057.152.152,0,0,0,.091.074h.186l.283.279Z" fill="#1a1818"/>
        <path id="Path_31" data-name="Path 31" d="M110.36,94.889h-.62l1.275-.937.275.036Z" fill="#1a1818"/>
        <path id="Path_32" data-name="Path 32" d="M111.627,95.953a.658.658,0,0,1,.094.185c0,.029.007.062.007.091a.266.266,0,0,1-.086.207.316.316,0,0,1-.229.08.373.373,0,0,1-.421-.423.453.453,0,0,1,.154-.353.537.537,0,0,1,.372-.141.782.782,0,0,1,.663.483l.022.043v-.872h-1.346l-.28-.279h2.19l.294.279h-.573v2.183l-.154-.207v-.071a1.54,1.54,0,0,0-.077-.4,2.32,2.32,0,0,0-.133-.382,1,1,0,0,0-.2-.264A.478.478,0,0,0,111.627,95.953Z" fill="#1a1818"/>
        </g>
        <rect id="Rectangle_10" data-name="Rectangle 10" width="29.979" height="22.319" transform="translate(83.082 70.267)" fill="#1a1818"/>
        <path id="Path_33" data-name="Path 33" d="M83.69,70.795V92.054h28.763V70.795Z" fill="#fff"/>
        <path id="Path_34" data-name="Path 34" d="M84.311,82.972v8.46h27.521v-8.46Z" fill="#1a1818"/>
        <g id="Group_3" data-name="Group 3">
        <path id="Path_35" data-name="Path 35" d="M92.531,77.456a5.77,5.77,0,0,0,.2-3.909c-.407-1.7-1.638-2.3-2.46-1.7a2.2,2.2,0,0,0-.412.706,8.818,8.818,0,0,1-1.026,1.9h0v.1l.922,1.807a4.79,4.79,0,0,0,1.13-2.306c.516-1.2.926,0,.926,0a3.93,3.93,0,0,1-.926,3.808,4.466,4.466,0,0,1-6.162.3l-.409.8s2.668,2.6,5.85,1a4.662,4.662,0,0,0,1.851-1.507h0c.2.5.922,2.307,2.055,1.807.921-.3.615-3.609.615-3.609a7.115,7.115,0,0,1,.1-2.908c.41-.8,1.642-1.2,3.592-1a4.819,4.819,0,0,1,1.541.5v-.9a5.852,5.852,0,0,0-5.236,0c-1.64.8-1.338,3.108-1.338,3.309,0,0,.311,2.4-.1,3.005-.308.5-.612-.8-.713-1.205Z" fill="#1a1818"/>
        <path id="Path_36" data-name="Path 36" d="M95.5,73.749a53.412,53.412,0,0,0-.1,6.716l1.028-.2a26.3,26.3,0,0,1,.41-6.814Z" fill="#1a1818"/>
        <path id="Path_37" data-name="Path 37" d="M97.046,78.36l.822,1.906a4.445,4.445,0,0,0,1.025-1.807c.205-1.1.305-.4.305-.4a4.683,4.683,0,0,0,1.338,2.11c.823.4,1.436-.506,1.541-1.708,0,0,0-1.306-.2-3.205-.308-1.8.923-2.608,2.667-2.806a10.059,10.059,0,0,1,5.854,1.4v-1s-5.137-2.808-8.829-.3c-1.029.8-.93,2.9-.93,2.9l.209,2.1s.206,1.306-.308.9c-.616-.4-1.026-2.1-1.026-2.208-.1-.1-.512-1.8-1.233-.194,0,0-.824,2-1.338,2.2l.107.1" fill="#1a1818"/>
        <path id="Path_38" data-name="Path 38" d="M106.185,78.36c.1,0,.206-.2.306-.7a15.557,15.557,0,0,0-.2-4.411l1.229.2a23.984,23.984,0,0,1,.1,3.2h0c.307-.5,1.236-1.9,2.156-1.9a1.133,1.133,0,0,1,.515.1,8.5,8.5,0,0,1,.305,2.6s0,3.31,1.237,3.813l-.308.9s-1.336-.1-1.749-.9a7.649,7.649,0,0,1-.1-3.01s.206-1.4-.509-1.6h-.108c-.618,0-1.23,1.1-1.438,1.7h0c0,.3,0,1.3-.409,1.5a.785.785,0,0,1-.514.2c-.72.1-1.333-.9-1.54-1.6a1.122,1.122,0,0,0-.41-.5.368.368,0,0,0-.206.1,4.481,4.481,0,0,1-1.03,2.11l-.918-1.708a11.586,11.586,0,0,0,1.126-2.506q.154-.6.617-.6c.205,0,.513.2.614.8a9.722,9.722,0,0,0,.721,1.6s.306.6.515.6" fill="#1a1818"/>
        </g>
        <g id="Group_4" data-name="Group 4">
        <path id="Path_39" data-name="Path 39" d="M93.85,88.246c-.053,0-.1.045-.136.137a.862.862,0,0,0-.055.324.9.9,0,0,0,.06.343c.04.1.089.147.148.147s.1-.048.136-.144a.913.913,0,0,0,.055-.332A.871.871,0,0,0,94,88.389C93.958,88.294,93.909,88.246,93.85,88.246Z" fill="#fff"/>
        <path id="Path_40" data-name="Path 40" d="M95.017,85.416l-.023-.076c-.014-.083-.027-.2-.036-.336v-.02l-.153-.3V84.8c0,.3,0,.578.013.841a.38.38,0,0,0-.15-.211l-.006-.015h-.023a.486.486,0,0,0-.223,0H92.923L92.85,84.9l0-.009a3.575,3.575,0,0,0-.264-.547c-.213-.31-.415-.466-.6-.466a.26.26,0,0,0-.2.1,1.109,1.109,0,0,0-.2.3,2.861,2.861,0,0,0-.148.452,1.541,1.541,0,0,0-.034.339.743.743,0,0,0,.041.254l.036.092h-.4L91,84.9l0-.009a3.574,3.574,0,0,0-.264-.547c-.213-.31-.415-.466-.6-.466a.26.26,0,0,0-.2.1,1.164,1.164,0,0,0-.2.3,3.242,3.242,0,0,0-.147.452,1.541,1.541,0,0,0-.034.339h0a.743.743,0,0,0,.041.254l.036.092H89.53v0h-.252c0-.037.006-.076.006-.112a1.362,1.362,0,0,0-.02-.228c-.075-.391-.219-.606-.429-.638a3.625,3.625,0,0,0-.394.013s-.081.015-.11.019c-.025-.046-.048-.086-.069-.117a2.128,2.128,0,0,0-.138-.181c0-.014.009-.031.017-.055l.007-.018v-.018l-.009-.226-.009-.007c-.018-.029-.05-.054-.092-.012v0a.194.194,0,0,0-.049.105.533.533,0,0,0-.022.074.5.5,0,0,0-.308-.13.258.258,0,0,0-.2.1,1.138,1.138,0,0,0-.2.3,2.992,2.992,0,0,0-.147.452,1.562,1.562,0,0,0-.034.339.72.72,0,0,0,.041.254l.036.092h-.277l-.023-.076c-.014-.083-.026-.2-.036-.336v-.02l-.153-.3V84.8c0,.3.006.578.014.841a.384.384,0,0,0-.151-.211l-.006-.015h-.022a.491.491,0,0,0-.224,0H84.9l.221.528.029.133a.843.843,0,0,0,.1.231.514.514,0,0,0,.152.149.645.645,0,0,1,.167.14,1.062,1.062,0,0,1,.113.424.111.111,0,0,0-.04-.013.266.266,0,0,0-.231.171,1.131,1.131,0,0,0-.1.529l.021.305,0,.018c.06.229.149.345.263.345s.186-.1.253-.28a1.941,1.941,0,0,1,.168.31,2.82,2.82,0,0,1,.147.773v.013l.156.409V86.007H86.5a.42.42,0,0,1,.133.242,1.026,1.026,0,0,1,.029.281v2.545l.237.61V85.993h.3v2.979l.246.557V85.993h.423v0h.643v.369l-.032-.1c-.038-.069-.078-.1-.124-.1-.081,0-.137.077-.171.22l-.07-.163a.155.155,0,0,0-.131-.092c-.226,0-.355.272-.387.809a2.529,2.529,0,0,0,0,.276,1.1,1.1,0,0,0,.126.461q.1.174.222.174c.109,0,.191-.124.242-.369a1.182,1.182,0,0,0,.008-.3c-.014-.146-.058-.316-.192-.3-.113.013-.16.124-.176.245A.621.621,0,0,1,87.838,87c.035-.153.084-.226.149-.226l.038,0c.076.014.117.089.142.138a.8.8,0,0,1,.06.215v.009l0,.009c.012.069.033.1.049.1s.044.024.114-.111l.008-.018v-.053c0-.123-.01-.212-.018-.28l0-.005.015-.01s.02.006.054.1a1.316,1.316,0,0,1,.056.187v.731a3.59,3.59,0,0,0,.006.395,1.421,1.421,0,0,0,.177.6.14.14,0,0,0,.2.071,1.149,1.149,0,0,0,.367-.613,3.76,3.76,0,0,0,.159-1.007,1.932,1.932,0,0,0-.045-.439c-.052-.268-.14-.4-.26-.4s-.2.154-.223.443c0,.049-.007.1-.007.139s0,.067,0,.1a.691.691,0,0,0,.084.293.17.17,0,0,0,.124.1,1,1,0,0,1-.042.214c-.151.444-.234.538-.276.538-.012,0-.031,0-.031-.106V85.989h.741l0,0h.176v2.979l.245.557V85.993h.111c.009.038.019.084.019.084a.931.931,0,0,0,.1.231.509.509,0,0,0,.153.149.591.591,0,0,1,.165.14,1.029,1.029,0,0,1,.115.424.117.117,0,0,0-.04-.013.264.264,0,0,0-.231.171,1.119,1.119,0,0,0-.1.529l.02.305,0,.018c.061.229.149.345.264.345s.186-.1.251-.28a1.843,1.843,0,0,1,.169.31,2.808,2.808,0,0,1,.148.773v.013l.156.409V86.007h.314v2.965l.245.557V85.993h.192c0,.084.023.576.023.576a9.82,9.82,0,0,0,.144,1.279,5.562,5.562,0,0,0,.2.74c.092.228.205.355.337.378.189.032.34-.076.449-.321a2.73,2.73,0,0,0,.165-1.067,3.438,3.438,0,0,0-.078-.718,1.152,1.152,0,0,0-.221-.531l-.015-.014-.01.025a1.485,1.485,0,0,0-.085.237,1.362,1.362,0,0,1-.106.283.546.546,0,0,1-.1.151V85.993h.69a.435.435,0,0,0,.225.29.646.646,0,0,1,.236.147l0,.009-.108.2c-.08.154-.174.362-.282.617l-.014.034.229.7.011,0a.45.45,0,0,1,.245.09,1.02,1.02,0,0,1,.2.334,2.412,2.412,0,0,1,.127.369c.017.061.049.208.1.435v.007l.151.4V85.993h.12c.072,0,.132.084.182.256a1.026,1.026,0,0,1,.029.281v2.545l.237.61V85.993h.422l-.24-.577ZM86.082,87.86c-.052-.154-.1-.283-.136-.375V87.46a5.933,5.933,0,0,0-.04-.594,2.035,2.035,0,0,0-.134-.544c-.023-.061-.073-.166-.147-.315h.457Zm1.295-2.448c-.009-.046-.034-.173-.038-.192A1.127,1.127,0,0,1,87.393,85c.035-.11.065-.2.09-.259.108-.167.211-.256.3-.256a.357.357,0,0,1,.161.039,1,1,0,0,0,.153.442.394.394,0,0,0,.317.2h.006l.135.242Zm1.681,0H88.6l-.038-.264a3.188,3.188,0,0,1,.33-.008c.034-.009.071.009.115.053a.147.147,0,0,1,.05.085v.014l.007.048Zm1.91,2.448c-.053-.155-.1-.283-.135-.375V87.46c0-.136-.014-.331-.04-.594a2.037,2.037,0,0,0-.135-.544q-.034-.09-.147-.315h.457Zm-.877-2.444h-.247l-.04-.2A1.3,1.3,0,0,1,89.859,85c.034-.112.065-.2.09-.26.108-.167.211-.256.3-.256.171,0,.326.121.46.362l.315.566Zm2.573,2.377c.09,0,.192-.125.309-.381a1.546,1.546,0,0,0,.076-.188.854.854,0,0,1,.026.2,1.285,1.285,0,0,1-.047.336c-.074.262-.18.39-.32.39a.27.27,0,0,1-.245-.193,2.693,2.693,0,0,1-.224-.831,7.889,7.889,0,0,1-.1-1v-.031l-.076-.1h.355v1.275C92.467,87.616,92.549,87.793,92.664,87.793Zm-.719-2.377H91.7c-.009-.044-.035-.177-.038-.2A1.047,1.047,0,0,1,91.713,85c.035-.112.065-.2.091-.26.108-.167.211-.256.3-.256.172,0,.327.121.46.362l.315.566Zm2.285,2.652a1.7,1.7,0,0,0-.37-.662c.063-.165.108-.278.135-.334a3.552,3.552,0,0,0,.167-.385l.013-.035-.013-.035c-.127-.352-.2-.54-.211-.577l-.025-.047h.3Z" fill="#fff"/>
        <path id="Path_41" data-name="Path 41" d="M99.169,85.413H95.7l.238.58h.484a1.2,1.2,0,0,1-.05.306c-.044.157-.074.19-.091.19a1.378,1.378,0,0,1-.089-.207l-.007-.017H96.17c-.031,0-.054.034-.067.1l-.033.16c0,.011-.006.078-.006.078a.857.857,0,0,0,.1.376c.074.147.135.219.186.219.1,0,.2-.223.283-.66a1.585,1.585,0,0,0,.138.385l.009.016-.123.155-.32.531-.018.033.013.043.166.565h.013c.221,0,.392.157.463.493v0a.873.873,0,0,1,.009.1c-.062-.066-.116-.105-.16-.105-.082,0-.154.057-.214.171a1.036,1.036,0,0,0-.1.485,1.133,1.133,0,0,0,.087.425c.063.107.13.157.2.157.121,0,.219-.127.3-.37a1.645,1.645,0,0,1,.354.8l.03.131.013-.146c.011-.125.016-.248.016-.368,0-.066,0-.131,0-.195a.861.861,0,0,0-.055-.224,1.656,1.656,0,0,0-.166-.328l-.053-.09V87.348c.068,0,.126.067.18.2a.615.615,0,0,1,.039.144.1.1,0,0,0-.023-.014.086.086,0,0,0-.093.042l0,0,0,.006a.759.759,0,0,0-.08.372.827.827,0,0,0,.052.3c.033.081.082.111.129.111.073,0,.126-.065.173-.217a1.815,1.815,0,0,0-.273-1.527l-.051-.047a2.185,2.185,0,0,0,.032-.236c.008-.081.011-.158.011-.23a1.573,1.573,0,0,0-.022-.262h.687l0-.008h.786v.358l-.029-.088c-.046-.1-.1-.153-.165-.163-.038-.005-.077.032-.119.108a.85.85,0,0,0-.068.174v0q-.131-.309-.3-.3c-.108,0-.2.122-.264.35a2.506,2.506,0,0,0-.088.692,2.069,2.069,0,0,0,.121.772c.081.2.19.3.324.3s.212-.132.256-.393a.65.65,0,0,0,.009-.116,1.853,1.853,0,0,0-.02-.232c-.007-.055-.016-.1-.016-.1-.04-.227-.1-.342-.191-.336h0c-.057,0-.107.044-.147.133a.821.821,0,0,0-.063.345c0,.016,0,.03,0,.045a.621.621,0,0,1-.043-.26.768.768,0,0,1,.061-.322c.042-.091.089-.136.143-.136s.122.049.161.15a1.189,1.189,0,0,1,.074.226c.006.024.014.051.021.074.1.309.164.044.164.044l0-.043c-.007-.112-.009-.193-.009-.253a.778.778,0,0,1,.007-.13c.011-.045.026-.068.048-.068s.059.035.088.1a.522.522,0,0,1,.044.208v1.9l.243.558V85.985h.419l-.248-.572Zm-2.292,3.9c-.041.07-.074.116-.109.116s-.036-.035-.036-.052a.133.133,0,0,1,.023-.089.068.068,0,0,1,.067-.024.152.152,0,0,1,.064.03ZM97,88.138c-.036-.084-.083-.183-.083-.183h0c-.062-.1-.105-.171-.14-.22A1.694,1.694,0,0,1,97,87.409Zm.088-1.852,0,.007,0,.009c-.018.067-.049.1-.092.1-.089.02-.155-.08-.205-.3h0c-.009-.038-.011-.071-.016-.106h.291s.008.022.019.08a.822.822,0,0,1,.019.156A.1.1,0,0,1,97.085,86.286Z" fill="#fff"/>
        <path id="Path_42" data-name="Path 42" d="M102.91,85.984c.078.837.142,1.406.188,1.6a4.861,4.861,0,0,0,.132.523,2.239,2.239,0,0,0,.276.621c.113.179.23.269.349.269.261.005.439-.252.53-.765a3.865,3.865,0,0,0,.063-.686c0-.1,0-.208-.014-.318a2.391,2.391,0,0,0-.232-.923l-.019-.035-.161.551v.008a1.054,1.054,0,0,1-.062.167,1.168,1.168,0,0,1-.057.122l0-.017V85.993h.882l-.242-.577h-1.914l.214.568Zm.746,1.046.042.466c.042.2.105.3.187.3.06,0,.126-.065.2-.194a1.418,1.418,0,0,0,.154-.317,1.507,1.507,0,0,1,.014.2c0,.016,0,.033,0,.05a2.3,2.3,0,0,1-.037.264,1.169,1.169,0,0,1-.1.295.328.328,0,0,1-.249.173c-.162,0-.292-.177-.423-.459a2.629,2.629,0,0,1-.163-.536,9.272,9.272,0,0,1-.109-.941l0-.016s-.074-.2-.124-.315h.619v.34Z" fill="#fff"/>
        <path id="Path_43" data-name="Path 43" d="M110.567,86.134a.994.994,0,0,1-.259.165.25.25,0,0,1-.17-.072c-.1-.072-.105-.131-.105-.141l.07-.093h.982l-.238-.579h-5.836l.244.579h.821v.055a3.064,3.064,0,0,0-.785,1.034l-.018.034.238.692.009,0a.638.638,0,0,1,.333.278,1.633,1.633,0,0,1,.156.348,2.414,2.414,0,0,1,.1.341c.008.035.024.126.061.387l0,.012.146.348V86.7c.086.008.16.088.227.247a1.164,1.164,0,0,1,.07.282.109.109,0,0,0-.07-.039.179.179,0,0,0-.1.043l0,0,0,.006a.966.966,0,0,0-.1.443.885.885,0,0,0,.072.374c.047.1.1.155.161.155.084,0,.153-.083.207-.248a1.709,1.709,0,0,0,.071-.519c0-.092,0-.194-.014-.3a2.565,2.565,0,0,0-.19-.78c-.1-.229-.209-.348-.322-.362v-.005h.879a5.21,5.21,0,0,0-.231,1.543,3.534,3.534,0,0,0,.277,1.548.281.281,0,0,0,.245.185c.08,0,.15-.063.209-.19a1.121,1.121,0,0,0,.09-.475.761.761,0,0,0-.111-.464c-.028-.063-.064-.1-.108-.1a.142.142,0,0,0-.1.066.7.7,0,0,0-.119.424l0,.086c0,.017.006.036.009.057a1.878,1.878,0,0,1-.146-.814c0-.12,0-.287.017-.493a1.846,1.846,0,0,1,.42-1.271.455.455,0,0,1,.233-.115h.874v.358l-.029-.089c-.045-.1-.1-.152-.165-.162-.037-.005-.078.032-.119.108a.912.912,0,0,0-.068.174v0c-.086-.206-.186-.306-.3-.3s-.2.122-.264.35a2.467,2.467,0,0,0-.089.692,2.089,2.089,0,0,0,.121.772q.123.3.325.3c.125,0,.211-.132.256-.393a.642.642,0,0,0,.01-.116,1.845,1.845,0,0,0-.019-.222c-.011-.073-.018-.114-.018-.114-.04-.226-.1-.341-.19-.335h0c-.058,0-.108.044-.149.133a.839.839,0,0,0-.061.345c0,.016,0,.03,0,.045a.6.6,0,0,1-.044-.26.768.768,0,0,1,.061-.322c.042-.091.088-.136.143-.136s.122.049.163.15a1.673,1.673,0,0,1,.073.226c.005.024.012.056.019.078.087.272.165.04.165.04l0-.043c-.007-.112-.009-.193-.009-.253a.778.778,0,0,1,.007-.13c.011-.045.026-.068.048-.068s.059.035.088.1a.522.522,0,0,1,.044.208v1.9l.243.558V85.985h.143l0,.008h.074v.046a11.456,11.456,0,0,0,.058,1.433,4.473,4.473,0,0,0,.152.742c.13.4.286.609.463.609.1,0,.186-.072.26-.212a1.648,1.648,0,0,0,.156-.555,2.452,2.452,0,0,0,.015-.269,2.489,2.489,0,0,0-.133-.789.777.777,0,0,0-.094-.2c-.016-.029-.032-.049-.052-.049h0l0,0-.082.084c-.15.185-.2.212-.212.212-.043,0-.052-.042-.052-.106a1.763,1.763,0,0,1,.068-.382,1.071,1.071,0,0,1,.089-.264l.064.2a.617.617,0,0,0,.251.331.592.592,0,0,0,.257.108,6.185,6.185,0,0,0-.07.868c0,.18.015.415.042.7l.069.681a.188.188,0,0,0,.088.132.179.179,0,0,0,.094.049c.018,0,.037-.024.058-.075l.012-.027-.007-.034a5.457,5.457,0,0,1-.11-.945l.011-.386a2.885,2.885,0,0,1,.074-.577,2.65,2.65,0,0,1,.152-.5l.016-.038-.267-.651Zm-4.491,1.795a2.1,2.1,0,0,0-.35-.7l.107-.184a1.766,1.766,0,0,1,.243-.281Zm3.766-.237a.394.394,0,0,0,.241-.15l.014-.009s.01.02.014.037a.685.685,0,0,1,.01.117.345.345,0,0,1-.1.253.362.362,0,0,1-.172.09c-.07.012-.144-.062-.221-.221a2.02,2.02,0,0,1-.151-.482c-.014-.077-.035-.238-.06-.48a4.181,4.181,0,0,1-.023-.467c0-.049,0-.1,0-.151v-.024l-.007-.018a.921.921,0,0,0-.139-.194h.352a2.311,2.311,0,0,0-.135.718l.009.222a1.5,1.5,0,0,0,.2.663A.227.227,0,0,0,109.842,87.692Z" fill="#fff"/>
        <path id="Path_44" data-name="Path 44" d="M103.7,87.32l-.07-.417c0-.015-.023-.065-.058-.152a.049.049,0,0,1,0,.024.386.386,0,0,1-.05.2c-.032.058-.069.087-.108.087q-.168,0-.186-.44a.55.55,0,0,1,.066-.317.194.194,0,0,1,.161-.111c.072,0,.138.083.2.248Z" fill="#fff"/>
        <path id="Path_45" data-name="Path 45" d="M102.186,85.475H101.4l.188.458h.363l-.111.38a3.3,3.3,0,0,0-.08.721c0,.173.019.44.056.792.033.308.049.508.049.61v.031a2.159,2.159,0,0,1-.046.444,1.235,1.235,0,0,1-.1.227,1.108,1.108,0,0,1-.09.075.157.157,0,0,0-.06.122l.007.053q.021.159.1.159c.05,0,.112-.061.193-.191a1.736,1.736,0,0,0,.252-.982c0-.127-.02-.464-.06-1a8.448,8.448,0,0,1-.028-1.039.749.749,0,0,1,.082-.32c.043-.073-.04-.109.012-.109l.269.028-.195-.457Z" fill="#fff"/>
        <path id="Path_46" data-name="Path 46" d="M102.118,85.966a1.148,1.148,0,0,1,.272.027l.069.018-.255-.573-.018-.024h-.848l.237.58h.325Z" fill="#fff"/>
        <path id="Path_47" data-name="Path 47" d="M102.324,84.751c0,.308.005.592.011.861-.046-.1-.1-.2-.166-.2a1.712,1.712,0,0,1-.173.015l-.045.011.1.554h.064c.067,0,.127.089.176.264a1.183,1.183,0,0,1,.031.309v2.46l.2.525.059.162v-3.72h.415l-.231-.58h-.208l-.022-.077c-.015-.094-.028-.219-.037-.366v-.012l-.172-.351Z" fill="#fff"/>
        <path id="Path_48" data-name="Path 48" d="M101.637,85.416c-.054,0-.119,0-.226,0H99.559l.253.576h.108a8.9,8.9,0,0,0,.253,1.588c.161.6.347.912.552.912.134,0,.247-.143.339-.413a5.456,5.456,0,0,1,.252,1.157l0,.019.15.281V85.993h.121Zm-.781,2.14c-.042.082-.093.12-.155.12-.155,0-.28-.167-.383-.51a9.447,9.447,0,0,1-.213-1.107l0-.021-.046-.045h.47a.351.351,0,0,0-.059.062.773.773,0,0,0-.109.445.922.922,0,0,0,.086.422c.056.105.119.158.19.158.1,0,.172-.109.217-.316a.871.871,0,0,1,.041.185,2.017,2.017,0,0,1,.024.282A.716.716,0,0,1,100.856,87.556Zm.369-.01c-.015-.074-.029-.145-.03-.153v-.16a2.546,2.546,0,0,0-.149-.9.836.836,0,0,0-.209-.338h.388Z" fill="#fff"/>
        </g>
        <g id="Group_6" data-name="Group 6">
        <rect id="Rectangle_11" data-name="Rectangle 11" width="22.377" height="22.377" transform="translate(60.084 70.26)" fill="#006e2d"/>
        <g id="Group_5" data-name="Group 5">
            <path id="Path_49" data-name="Path 49" d="M60.421,70.6h21.76V92.4l-10.1.055-.839,1.527-.894-1.648-9.986.014Z" fill="#fff"/>
            <path id="Path_50" data-name="Path 50" d="M82.233,70.26H60.084V92.632h10.1l.862,1.513.223.485.235-.485.774-1.513H82.461V70.26ZM71.778,92.128,71.247,93.4l-.664-1.273h-9.95V70.841H81.911V92.128H71.778Z" fill="#1a1818"/>
            <rect id="Rectangle_12" data-name="Rectangle 12" width="21.278" height="21.287" transform="translate(60.633 70.841)" fill="#fff"/>
            <path id="Path_51" data-name="Path 51" d="M70.359,80.529h-9.15V71.422h9.15v9.107Z" fill="#1a1818"/>
            <path id="Path_52" data-name="Path 52" d="M81.333,80.529H72.188V71.422h9.145v9.107Z" fill="#1a1818"/>
            <path id="Path_53" data-name="Path 53" d="M70.359,91.545h-9.15V82.354h9.15v9.191Z" fill="#1a1818"/>
            <path id="Path_54" data-name="Path 54" d="M81.333,91.545H72.188V82.452h9.145v9.093Z" fill="#1a1818"/>
            <path id="Path_55" data-name="Path 55" d="M71.321,72.772a3.034,3.034,0,0,0-.962.1v7.657h-7.7a2.9,2.9,0,0,0-.1.906,2.934,2.934,0,0,0,.1.911h7.7v7.558a2.541,2.541,0,0,0,.867.1,3.45,3.45,0,0,0,.962-.1v-7.46h7.7c0-.4.1-.708.1-1.009s-.1-.6-.1-.906h-7.7V72.876a2.756,2.756,0,0,0-.867-.1" fill="#fff"/>
            <path id="Path_56" data-name="Path 56" d="M70.359,72.775a8.638,8.638,0,0,0-7.7,7.748h7.7V72.775" fill="#96999c"/>
            <path id="Path_57" data-name="Path 57" d="M72.188,72.775v7.748h7.7a8.641,8.641,0,0,0-7.7-7.748" fill="#96999c"/>
            <path id="Path_58" data-name="Path 58" d="M70.359,82.362h-7.7a8.63,8.63,0,0,0,7.7,7.647V82.362" fill="#96999c"/>
            <path id="Path_59" data-name="Path 59" d="M79.889,82.46h-7.7v7.549a8.626,8.626,0,0,0,7.7-7.549" fill="#96999c"/>
            <path id="Path_60" data-name="Path 60" d="M75.462,81.439H74.5a3.3,3.3,0,0,1-.959,2.216,3.47,3.47,0,0,1-2.312.912,3.4,3.4,0,0,1-2.214-.912,3.3,3.3,0,0,1-.965-2.216,3.365,3.365,0,0,1,.965-2.319,3.424,3.424,0,0,1,2.214-.906,3.491,3.491,0,0,1,2.312.906,3.368,3.368,0,0,1,.959,2.319h2.024a5.25,5.25,0,0,0-10.5,0,5.253,5.253,0,0,0,10.5,0H75.462" fill="#fff"/>
            <path id="Path_61" data-name="Path 61" d="M74.683,81.439a3.41,3.41,0,0,1-6.819,0,3.336,3.336,0,0,1,3.353-3.389,3.438,3.438,0,0,1,3.466,3.389Z" fill="#1a1818"/>
            <path id="Path_62" data-name="Path 62" d="M74.683,81.439h-.336a2.781,2.781,0,0,1-.9,2.109,3.04,3.04,0,0,1-2.232.932,2.989,2.989,0,0,1-2.125-.932,2.813,2.813,0,0,1-.892-2.109,3.072,3.072,0,0,1,.892-2.221,3.435,3.435,0,0,1,2.125-.821,3.485,3.485,0,0,1,2.232.821,3.036,3.036,0,0,1,.9,2.221h.668a3.743,3.743,0,0,0-7.487,0,3.744,3.744,0,1,0,7.487,0h-.332" fill="#6d6f72"/>
            <path id="Path_63" data-name="Path 63" d="M69.5,82.73a2.445,2.445,0,0,0-.288-.17,1.4,1.4,0,0,0-.318-.106l-.13-.48.051-.019c.014.051.085.108.207.161a1.156,1.156,0,0,0,.275.086.281.281,0,0,0,.172-.04c.063-.032.093-.073.093-.117a.1.1,0,0,0-.01-.041.512.512,0,0,0-.214-.229l-.249-.126a.209.209,0,0,1-.139-.18.375.375,0,0,1,.031-.118.19.19,0,0,1,.136-.067.768.768,0,0,1,.1.027.161.161,0,0,1,.063.128,1.132,1.132,0,0,1,.3.21.47.47,0,0,1,.144.342.426.426,0,0,1-.067.256.953.953,0,0,1-.133.13.379.379,0,0,1-.117.054c.045.037.135.106.264.206a3.114,3.114,0,0,1,.25.238l.049.273A2.692,2.692,0,0,0,69.5,82.73Z" fill="#fff"/>
            <path id="Path_64" data-name="Path 64" d="M70.522,82.72a.47.47,0,0,1-.362-.182.617.617,0,0,1-.136-.4.482.482,0,0,1,.161-.38.534.534,0,0,1,.372-.141.48.48,0,0,1,.44.254.582.582,0,0,1,.085.307.517.517,0,0,1-.174.393A.492.492,0,0,1,70.522,82.72Zm.126-.909a.39.39,0,0,0-.2.065.425.425,0,0,0-.149.154.576.576,0,0,0-.079.253.226.226,0,0,0,.064.165.2.2,0,0,0,.152.066.49.49,0,0,0,.441-.456.241.241,0,0,0-.066-.179A.213.213,0,0,0,70.648,81.811Z" fill="#fff"/>
            <path id="Path_65" data-name="Path 65" d="M71.8,82.72a.472.472,0,0,1-.364-.182.617.617,0,0,1-.136-.4.478.478,0,0,1,.164-.38.528.528,0,0,1,.37-.141.476.476,0,0,1,.439.254.584.584,0,0,1,.087.307.517.517,0,0,1-.174.393A.5.5,0,0,1,71.8,82.72Zm.123-.909a.377.377,0,0,0-.2.065.441.441,0,0,0-.151.154.59.59,0,0,0-.079.253.225.225,0,0,0,.063.165.208.208,0,0,0,.155.066.491.491,0,0,0,.438-.456.247.247,0,0,0-.063-.179A.223.223,0,0,0,71.925,81.811Z" fill="#fff"/>
            <path id="Path_66" data-name="Path 66" d="M73.533,82.643a.444.444,0,0,1-.328.128c-.2-.006-.375-.151-.529-.435a2.037,2.037,0,0,1-.23-.741l.166.075a1.188,1.188,0,0,0,.281.643.361.361,0,0,0,.548.041.308.308,0,0,0,.107-.259.484.484,0,0,0-.093-.315.334.334,0,0,0-.12-.073.335.335,0,0,1,.02.1.309.309,0,0,1-.028.119.235.235,0,0,1-.22.145.221.221,0,0,1-.187-.1.363.363,0,0,1-.069-.223.325.325,0,0,1,.048-.167.3.3,0,0,1,.119-.119.516.516,0,0,1,.167-.042.41.41,0,0,1,.268.1.8.8,0,0,1,.08,1.122Z" fill="#fff"/>
            <path id="Path_67" data-name="Path 67" d="M70.2,79.957a.238.238,0,0,1,.015.163c-.026.123-.086.185-.185.185a.236.236,0,0,1-.153-.063.343.343,0,0,1-.1-.137c-.06.144-.122.216-.19.216a.194.194,0,0,1-.116-.061.159.159,0,0,1-.062-.1l0-.014.021-.047a.033.033,0,0,1,.032-.024q.059.069.072.069c.023,0,.049-.023.075-.067a.2.2,0,0,0,.038-.1c0-.01,0-.013-.006-.013h-.332l-.13-.143h1.143l.138.143H70.2Zm-.11.033c-.011-.019-.018-.031-.026-.033h-.221a.184.184,0,0,0,.02.055.15.15,0,0,0,.152.1.083.083,0,0,0,.076-.042.032.032,0,0,0,.012-.028A.2.2,0,0,0,70.086,79.99Z" fill="#fff"/>
            <path id="Path_68" data-name="Path 68" d="M69.975,80.837l.01.008a2.874,2.874,0,0,1,.392.343l.024.159a1.616,1.616,0,0,0-.693-.448l-.1-.036-.125-.314a.515.515,0,0,0,.318.115.3.3,0,0,0,.164-.037.2.2,0,0,0,.1-.142.109.109,0,0,0-.02-.091c0-.009-.017-.012-.037-.012a.094.094,0,0,0-.047.01.22.22,0,0,1-.108.175.152.152,0,0,1-.195-.007.107.107,0,0,1-.038-.1.265.265,0,0,1,.06-.127.386.386,0,0,1,.181-.094.739.739,0,0,1,.08,0,.274.274,0,0,1,.2.078.3.3,0,0,1,.076.214C70.22,80.645,70.137,80.748,69.975,80.837Z" fill="#fff"/>
            <path id="Path_69" data-name="Path 69" d="M70.464,79.923c-.008-.1-.012-.2-.012-.315l.074.066a.432.432,0,0,0,.026.111c.006.007.011.017.021.029h.141l.131.143h-.266v1.1l-.127-.15v-.766a.179.179,0,0,0-.022-.1.158.158,0,0,0-.134-.084h-.033l-.134-.138a.88.88,0,0,1,.194,0A.187.187,0,0,1,70.464,79.923Z" fill="#fff"/>
            <path id="Path_70" data-name="Path 70" d="M71.519,79.611A.492.492,0,0,0,71.2,79.5a.37.37,0,0,0-.216.084.587.587,0,0,0-.063.08c-.027.04-.041.066-.039.077l.03.073h.173l.132.143H70.95v1.056l-.135-.139v-.917h-.127l-.13-.143H70.8l-.05-.055a.111.111,0,0,1-.022-.066.217.217,0,0,1,.02-.1.787.787,0,0,1,.1-.136.63.63,0,0,1,.135-.088.272.272,0,0,1,.13-.027.73.73,0,0,1,.4.141.943.943,0,0,1,.177.163l.043.132Z" fill="#fff"/>
            <path id="Path_71" data-name="Path 71" d="M71.852,80.112l-.013-.1-.015-.363.087.067.009.019a.181.181,0,0,0,.019.066l.028.018h.054a.323.323,0,0,1,.078,0l.127.138h-.267V81a.876.876,0,0,1-.14-.134l.013-.531a.352.352,0,0,0-.089-.17l-.314.345-.178-.071.1-.117a.057.057,0,0,0,.013-.044c0-.055-.017-.08-.044-.08a1.048,1.048,0,0,0-.113.039.072.072,0,0,1-.071-.026.1.1,0,0,1-.034-.074.144.144,0,0,1,.021-.067.409.409,0,0,1,.363-.242.328.328,0,0,1,.22.081A.52.52,0,0,1,71.852,80.112Zm-.39.108.176-.186a.18.18,0,0,0-.118-.054.2.2,0,0,0-.18.091C71.4,80.082,71.445,80.132,71.462,80.22Z" fill="#fff"/>
            <path id="Path_72" data-name="Path 72" d="M72.069,79.957l-.134-.143h1.234l.141.143Zm.846.8a.408.408,0,0,1-.213.069.455.455,0,0,1-.133-.025.326.326,0,0,1-.12-.077.613.613,0,0,1-.091-.112,1.457,1.457,0,0,1-.114-.2,4.621,4.621,0,0,1-.145-.454l.1.041c.039.1.067.175.084.218a1.462,1.462,0,0,0,.108.2.377.377,0,0,0,.318.193.28.28,0,0,0,.18-.086.186.186,0,0,0,.067-.147.242.242,0,0,0-.038-.129.123.123,0,0,0-.1-.07.12.12,0,0,0-.03,0,.223.223,0,0,1,.024.1.149.149,0,0,1-.169.163.168.168,0,0,1-.174-.156.3.3,0,0,1-.006-.055.213.213,0,0,1,.078-.168.225.225,0,0,1,.164-.064.419.419,0,0,1,.09.011.387.387,0,0,1,.265.3.51.51,0,0,1,.019.134A.337.337,0,0,1,72.915,80.754Z" fill="#fff"/>
        </g>
        </g>
    </g>
</svg>